<svg id="Calque_2" data-name="Calque 2" xmlns="http://www.w3.org/2000/svg" viewBox="0 0 337 337"><path d="M158.24,65A12.78,12.78,0,0,1,171,77.76v81.48A12.78,12.78,0,0,1,158.24,172H76.76A12.78,12.78,0,0,1,64,159.24V77.76A12.78,12.78,0,0,1,76.76,65h81.48m0-25H76.76A37.77,37.77,0,0,0,39,77.76v81.48A37.77,37.77,0,0,0,76.76,197h81.48A37.77,37.77,0,0,0,196,159.24V77.76A37.77,37.77,0,0,0,158.24,40Z" transform="translate(-39 -40)"/><path d="M338.24,65A12.78,12.78,0,0,1,351,77.76v81.48A12.78,12.78,0,0,1,338.24,172H256.76A12.78,12.78,0,0,1,244,159.24V77.76A12.78,12.78,0,0,1,256.76,65h81.48m0-25H256.76A37.77,37.77,0,0,0,219,77.76v81.48A37.77,37.77,0,0,0,256.76,197h81.48A37.77,37.77,0,0,0,376,159.24V77.76A37.77,37.77,0,0,0,338.24,40Z" transform="translate(-39 -40)"/><path d="M158.24,245A12.78,12.78,0,0,1,171,257.76v81.48A12.78,12.78,0,0,1,158.24,352H76.76A12.78,12.78,0,0,1,64,339.24V257.76A12.78,12.78,0,0,1,76.76,245h81.48m0-25H76.76A37.77,37.77,0,0,0,39,257.76v81.48A37.77,37.77,0,0,0,76.76,377h81.48A37.77,37.77,0,0,0,196,339.24V257.76A37.77,37.77,0,0,0,158.24,220Z" transform="translate(-39 -40)"/><path d="M338.24,245A12.78,12.78,0,0,1,351,257.76v81.48A12.78,12.78,0,0,1,338.24,352H256.76A12.78,12.78,0,0,1,244,339.24V257.76A12.78,12.78,0,0,1,256.76,245h81.48m0-25H256.76A37.77,37.77,0,0,0,219,257.76v81.48A37.77,37.77,0,0,0,256.76,377h81.48A37.77,37.77,0,0,0,376,339.24V257.76A37.77,37.77,0,0,0,338.24,220Z" transform="translate(-39 -40)"/></svg>