<svg xmlns="http://www.w3.org/2000/svg" viewBox="0 0 340 339"><defs><style>.cls-1,.cls-3,.cls-4{fill:none;}.cls-2{fill:aqua;}.cls-3,.cls-4{stroke:#000;stroke-width:12px;}.cls-3{stroke-miterlimit:10;}.cls-4{stroke-linejoin:round;}</style></defs><g id="Calque_3" data-name="Calque 3"><rect class="cls-1" y="15" width="2" height="2"/><path d="M85.53,87c-4.06,13.14-3,28.42,3.09,42.33A15.65,15.65,0,0,0,89,131H65a19,19,0,0,1-19-19v-6A19,19,0,0,1,65,87H85.53M340,75H286.22A115.36,115.36,0,0,1,296,86.94a4.84,4.84,0,0,1,2.8-.83h39.1l.37,0,.17,0h.71a4.72,4.72,0,0,1,5,4.82v34.5a4.74,4.74,0,0,1-4.82,5.14H221.23a4.16,4.16,0,0,1-2.18,1.07,75.29,75.29,0,0,1-10.9,1,5.32,5.32,0,0,1-1.8.38,5.28,5.28,0,0,1-1.84.55,86.13,86.13,0,0,1-10,.72c-4.3,0-8.61-.56-11.45-2.47l-.29-.22a5.29,5.29,0,0,1-1.77-1.06h-9.78l-.3.14c-55.93,0-58.93.64-65.87.64a5.34,5.34,0,0,1-4.78-5.35c-5.8-12.29-7.29-27.62-1.49-40.15a6.16,6.16,0,0,1,.47-1.55c.22-.5.48-1,.72-1.46-.1-2.81,1.51-5.54,3.5-7.84H65a31,31,0,0,0-31,31v6a31,31,0,0,0,31,31H356V91a16,16,0,0,0-16-16Z" transform="translate(-33 -30)"/><path class="cls-2" d="M194.16,75h-6.43a5,5,0,0,1-2.1,5.79c-6.42,4.55-9.76,11.68-11.49,19.17-1.44,6.24-2.52,13.89-1.55,20.61h8c0-2.24-.15-4.5-.14-6.75a58.21,58.21,0,0,1,1.24-10.26c1.25-6.79,3.34-13.77,8.88-18.31L191,85a5.36,5.36,0,0,1,.13-1.46c.71-3,1.5-6.14,3-8.53Z" transform="translate(-33 -30)"/></g><g id="Calque_4" data-name="Calque 4"><path d="M350,147v69c-4.26.05-9.08.07-13.45.07-5.88,0-8.58,0-9.81-.09s-2.25-.07-3.24-.07c-4.62,0-11.54.43-18.24,4.11-.67.37-1.27.74-1.81,1.1a37.44,37.44,0,0,0-5.29,4.47c-3.9,3.66-5.05,5.12-5.93,6.69a20.91,20.91,0,0,0-1.86,4.59c-2.94,7.31-2.1,18.18-.34,24.55,3.31,16.41,22.29,24.73,56.45,24.73,1.2,0,2.38,0,3.52,0V354a3,3,0,0,1-3,3H64a18,18,0,0,1-18-18V147H350m1-12H34V339a30,30,0,0,0,30,30H347a15,15,0,0,0,15-15V273.53c-1.27.15-7.51.65-15.52.65-17.18,0-42.52-2.33-44.76-15.5C300,253,300,244,301.76,240.82a9.24,9.24,0,0,1,1-2.68c.61-1.1,6.79-6.71,7-6.74.44-.29.88-.58,1.34-.83,3.89-2.14,8.15-2.63,12.46-2.63.94,0,1.87,0,2.8.06,2.09.07,5.89.1,10.25.1,9.87,0,22.68-.15,25.45-.26V146a11,11,0,0,0-11-11Z" transform="translate(-33 -30)"/><line class="cls-3" x1="7" y1="135" x2="7" y2="79"/><path class="cls-3" d="M309.51,231.43" transform="translate(-33 -30)"/></g><g id="Calque_5" data-name="Calque 5"><path d="M355,228a7,7,0,0,1,7,7v32a7,7,0,0,1-7,7H322a23,23,0,0,1,0-46h33m0-11H322a34,34,0,0,0-34,34h0a34,34,0,0,0,34,34h33a18,18,0,0,0,18-18V235a18,18,0,0,0-18-18Z" transform="translate(-33 -30)"/></g><g id="Calque_6" data-name="Calque 6"><polyline class="cls-4" points="9 187.5 55.47 187.5 76.5 166"/><line class="cls-4" x1="9" y1="221" x2="113.62" y2="221"/><polyline class="cls-4" points="9.37 254.9 55.84 254.9 76.87 276.4"/></g><g id="Calque_7" data-name="Calque 7"><path d="M118.5,172A11.5,11.5,0,1,1,107,183.5,11.51,11.51,0,0,1,118.5,172m0-12A23.5,23.5,0,1,0,142,183.5,23.5,23.5,0,0,0,118.5,160Z" transform="translate(-33 -30)"/><path d="M163.5,240A11.5,11.5,0,1,1,152,251.5,11.51,11.51,0,0,1,163.5,240m0-12A23.5,23.5,0,1,0,187,251.5,23.5,23.5,0,0,0,163.5,228Z" transform="translate(-33 -30)"/><path d="M118.5,307A11.5,11.5,0,1,1,107,318.5,11.51,11.51,0,0,1,118.5,307m0-12A23.5,23.5,0,1,0,142,318.5,23.5,23.5,0,0,0,118.5,295Z" transform="translate(-33 -30)"/></g><g id="Calque_8" data-name="Calque 8"><path d="M243.5,59a61.54,61.54,0,0,1,60.37,73.28,50.29,50.29,0,0,0-7,2.14l-11.25-.11c-15.67-.14-31.87-.29-47.71-.91l-5.64-.23c-8.46-.35-17.21-.71-25.92-.71-5.84,0-11.16.16-16.2.49a20.89,20.89,0,0,0-3.25-.21c-1.06,0-2.29.06-3.61.17A61.52,61.52,0,0,1,243.5,59m0-12a73.49,73.49,0,0,0-69,98.89,5,5,0,0,1,1.16.35,53.56,53.56,0,0,1,11.18-1.5,4.27,4.27,0,0,1,2.15.32c5.76-.43,11.53-.6,17.3-.6,10.35,0,20.71.53,31.09.93,20.59.81,41.2.82,61.8,1.05a45.16,45.16,0,0,1,14.32-3.6A73.52,73.52,0,0,0,243.5,47Z" transform="translate(-33 -30)"/><path d="M157.5,42A61.52,61.52,0,0,1,212,132.11c-8.18,0-29.86.33-34.57.52l-2.13,0c-1.08,0-2.15,0-3.17.06a16.89,16.89,0,0,0-7.17,1.93l-.51.23c-7.65-.35-16.26-.69-24.89-.82-1.63,0-3.32-.09-5.11-.16l-3.4-.11a16.27,16.27,0,0,0-8.89-2.62h-.54a167.36,167.36,0,0,0-18.31,1.35A61.49,61.49,0,0,1,157.5,42m0-12A73.48,73.48,0,0,0,97.43,145.83c8-2,16.29-2.43,24.54-2.71h.14a4.88,4.88,0,0,1,4.11,2.54h.37c4.3,0,8.63.28,12.74.35,9.49.14,19,.53,28.46,1a5.11,5.11,0,0,1,2.32-1.56,4.88,4.88,0,0,1,2.47-.78c.89,0,1.79,0,2.68,0l2.24,0c2.32-.14,25.49-.53,34.5-.53,1.56,0,2.69,0,3.22,0a5.09,5.09,0,0,1,2.86,1A73.5,73.5,0,0,0,157.5,30Z" transform="translate(-33 -30)"/></g></svg>