<svg xmlns="http://www.w3.org/2000/svg" viewBox="0 0 343 343" fill="#ffde03"><defs><style>.cls-1,.cls-2{fill:none;stroke-linecap:round;stroke-miterlimit:10;stroke-width:24px;}.cls-1{stroke:#ffde03;}.cls-2{stroke:#ffde03;}</style></defs><g id="Calque_3" data-name="Calque 3"><path d="M337.68,105A15.33,15.33,0,0,1,353,120.32v8.36A15.33,15.33,0,0,1,337.68,144H73.32A15.33,15.33,0,0,1,58,128.68v-8.36A15.33,15.33,0,0,1,73.32,105H337.68m0-24H73.32A39.31,39.31,0,0,0,34,120.32v8.36A39.31,39.31,0,0,0,73.32,168H337.68A39.31,39.31,0,0,0,377,128.68v-8.36A39.31,39.31,0,0,0,337.68,81Z" transform="translate(-34 -22)"/><path class="cls-1" d="M169,282.3" transform="translate(-34 -22)"/><path class="cls-1" d="M169,222" transform="translate(-34 -22)"/></g><g id="Calque_4" data-name="Calque 4"><line class="cls-2" x1="209" y1="255" x2="209" y2="202.67"/><line class="cls-2" x1="134.6" y1="254.81" x2="134.6" y2="202.49"/></g><g id="Calque_5" data-name="Calque 5"><path class="cls-2" d="M69,156,94,313s13,40,54,40H269s40-7,48-58,23.83-139,23.83-139" transform="translate(-34 -22)"/></g><g id="Calque_6" data-name="Calque 6"><line class="cls-2" x1="118" y1="12" x2="62" y2="70"/><line class="cls-2" x1="282.36" y1="69.24" x2="224.36" y2="13.24"/></g></svg>