<svg xmlns="http://www.w3.org/2000/svg" viewBox="0 0 334.5 297"><defs><style>.cls-1{fill:none;}</style></defs><g id="Calque_3" data-name="Calque 3"><path d="M259,72a11,11,0,0,1,11,11v29H71V102a30,30,0,0,1,30-30H259m0-20H101a50,50,0,0,0-50,50v30H290V83a31,31,0,0,0-31-31Z" transform="translate(-51 -52)"/></g><g id="Calque_2" data-name="Calque 2"><path class="cls-1" d="M349,111v74H317a14,14,0,0,0-14,14v49a14,14,0,0,0,14,14h32v87H51V111Z" transform="translate(-51 -52)"/><rect class="cls-1" x="94" y="113" width="114" height="91"/><path d="M299.59,132A28.44,28.44,0,0,1,328,160.41V164H317a35,35,0,0,0-35,35v49a35,35,0,0,0,34.6,35l11.4.35v16.24A28.44,28.44,0,0,1,299.59,328H100.41A28.44,28.44,0,0,1,72,299.59V132H299.59m0-21H51V299.59A49.41,49.41,0,0,0,100.41,349H299.59A49.41,49.41,0,0,0,349,299.59V263l-32-1a14,14,0,0,1-14-14V199a14,14,0,0,1,14-14h32V160.41A49.41,49.41,0,0,0,299.59,111Z" transform="translate(-51 -52)"/></g><g id="Calque_4" data-name="Calque 4"><path d="M349.5,185.5a14,14,0,0,1,14,14v49a14,14,0,0,1-14,14h-32a14,14,0,0,1-14-14v-49a14,14,0,0,1,14-14h32m0-22h-32a36,36,0,0,0-36,36v49a36,36,0,0,0,36,36h32a36,36,0,0,0,36-36v-49a36,36,0,0,0-36-36Z" transform="translate(-51 -52)"/></g></svg>