<svg xmlns="http://www.w3.org/2000/svg" viewBox="0 0 298 297"><defs><style>.cls-1{fill:none;}</style></defs><g id="Calque_2" data-name="Calque 2"><rect class="cls-1" y="59" width="298" height="238"/><rect class="cls-1" x="94" y="113" width="114" height="91"/><path d="M299.59,132A28.44,28.44,0,0,1,328,160.41V299.59A28.44,28.44,0,0,1,299.59,328H100.41A28.44,28.44,0,0,1,72,299.59V132H299.59m0-21H51V299.59A49.41,49.41,0,0,0,100.41,349H299.59A49.41,49.41,0,0,0,349,299.59V160.41A49.41,49.41,0,0,0,299.59,111Z" transform="translate(-51 -52)"/></g><g id="Calque_3" data-name="Calque 3"><path d="M259,72a11,11,0,0,1,11,11v29H71V102a30,30,0,0,1,30-30H259m0-20H101a50,50,0,0,0-50,50v30H290V83a31,31,0,0,0-31-31Z" transform="translate(-51 -52)"/></g></svg>